<svg id="Layer_1" data-name="Layer 1" xmlns="http://www.w3.org/2000/svg" viewBox="0 0 385.1445 59.6016"><title>Atlanta_Fine_Homes_SIR_Horz_WHT</title><path d="M30.8833,29.8213h2.5259l8.5952,24.375H39.5771l-2.5917-7.48H27.1436l-2.5918,7.48H22.2881Zm5.38,14.8281L32.0972,32.5767h-.0659L27.8652,44.6494Z" transform="translate(-22.2881 -27.7002)" style="fill:#fff"/><path d="M45.6611,50.1611V38.8428H42.6426V36.9072h3.0185v-6.2h2.2637v6.2h4.4941v1.9356H47.9248V49.7017c0,1.8374.59,2.8212,2.7227,2.8212a6.029,6.029,0,0,0,1.8046-.2294V54.229a13.7121,13.7121,0,0,1-2.2309.1968C46.9077,54.4258,45.6611,53.1465,45.6611,50.1611Z" transform="translate(-22.2881 -27.7002)" style="fill:#fff"/><path d="M55.917,29.9194h2.2637V54.1963H55.917Z" transform="translate(-22.2881 -27.7002)" style="fill:#fff"/><path d="M62.0239,50.1611c0-3.4121,2.92-5.9052,11.7119-7.25v-.8862c0-2.3945-1.2465-3.543-3.51-3.543a9.4018,9.4018,0,0,0-6.4629,2.7232l-1.2139-1.4107a11.026,11.026,0,0,1,7.8736-3.2153c3.8711,0,5.5444,2.0669,5.5444,5.5117v7.8408a11.925,11.925,0,0,0,.4922,4.2647h-2.33a7.7352,7.7352,0,0,1-.3936-2.4605,9.885,9.885,0,0,1-6.8237,2.7559C63.8281,54.4917,62.0239,52.8511,62.0239,50.1611Zm11.7119-.2627v-5.38c-7.414,1.2465-9.4809,3.0835-9.4809,5.3471,0,1.8047,1.2139,2.7559,3.1494,2.7559A9.0109,9.0109,0,0,0,73.7358,49.8984Z" transform="translate(-22.2881 -27.7002)" style="fill:#fff"/><path d="M80.6479,36.9072h2.2637V39.63a9.4746,9.4746,0,0,1,6.5943-3.0513c3.4116,0,5.15,1.9028,5.15,5.1182v12.499H92.3926V42.1235c0-2.4277-1.0825-3.6089-3.4448-3.6089-2.2305,0-4.1006,1.1485-6.0362,3.0186V54.1963H80.6479Z" transform="translate(-22.2881 -27.7002)" style="fill:#fff"/><path d="M100.4424,50.1611V38.8428H97.4238V36.9072h3.0186v-6.2h2.2637v6.2H107.2v1.9356h-4.4941V49.7017c0,1.8374.59,2.8212,2.7226,2.8212a6.03,6.03,0,0,0,1.8047-.2294V54.229a13.7124,13.7124,0,0,1-2.231.1968C101.689,54.4258,100.4424,53.1465,100.4424,50.1611Z" transform="translate(-22.2881 -27.7002)" style="fill:#fff"/><path d="M109.9434,50.1611c0-3.4121,2.92-5.9052,11.7119-7.25v-.8862c0-2.3945-1.2466-3.543-3.51-3.543a9.4019,9.4019,0,0,0-6.4629,2.7232l-1.2138-1.4107a11.0251,11.0251,0,0,1,7.8735-3.2153c3.8711,0,5.5444,2.0669,5.5444,5.5117v7.8408a11.9394,11.9394,0,0,0,.4917,4.2647h-2.3291a7.7354,7.7354,0,0,1-.3935-2.4605,9.8846,9.8846,0,0,1-6.8238,2.7559C111.7476,54.4917,109.9434,52.8511,109.9434,50.1611Zm11.7119-.2627v-5.38c-7.4141,1.2465-9.481,3.0835-9.481,5.3471,0,1.8047,1.2139,2.7559,3.1494,2.7559A9.0111,9.0111,0,0,0,121.6553,49.8984Z" transform="translate(-22.2881 -27.7002)" style="fill:#fff"/><path d="M136.8394,29.9194h14.205V32.085H139.1685V40.45H147.96v2.1h-8.7919V54.1963h-2.3291Z" transform="translate(-22.2881 -27.7002)" style="fill:#fff"/><path d="M154.5474,30.4771h2.3945v2.4277h-2.3945Zm.0654,6.43h2.2637V54.1963h-2.2637Z" transform="translate(-22.2881 -27.7002)" style="fill:#fff"/><path d="M161.74,36.9072h2.2637V39.63a9.4746,9.4746,0,0,1,6.5943-3.0513c3.4116,0,5.15,1.9028,5.15,5.1182v12.499h-2.2636V42.1235c0-2.4277-1.0825-3.6089-3.4448-3.6089-2.2305,0-4.1006,1.1485-6.0362,3.0186V54.1963H161.74Z" transform="translate(-22.2881 -27.7002)" style="fill:#fff"/><path d="M179.5527,45.5352c0-6.1348,3.937-8.9561,7.5786-8.9561,4.0352,0,7.0533,3.084,7.0533,8.9893v.4262H181.8164c.0332,4.2652,2.4605,6.66,5.4458,6.66,2.5918,0,4.0684-1.1152,5.38-3.1494l1.4106,1.1157a7.6328,7.6328,0,0,1-6.9219,3.9365C183.0962,54.5571,179.5527,51.44,179.5527,45.5352ZM191.9863,44.19c-.23-3.2807-1.8042-5.7085-4.8877-5.7085-2.4936,0-4.8227,1.8042-5.249,5.7085Z" transform="translate(-22.2881 -27.7002)" style="fill:#fff"/><path d="M92.7759,61.92H95.105V72.3193H108.26V61.92H110.59V86.1963H108.26V74.4512H95.105V86.1963H92.7759Z" transform="translate(-22.2881 -27.7002)" style="fill:#fff"/><path d="M114.9805,77.5684c0-5.7745,3.5761-8.9893,7.8408-8.9893,4.2319,0,7.8081,3.2148,7.8081,8.9893,0,5.7412-3.5762,8.9892-7.8081,8.9892S114.9805,83.31,114.9805,77.5684Zm13.3852-.0332c0-3.7725-1.9028-7.0206-5.5444-7.0206-3.51,0-5.5772,2.9532-5.5772,7.0206,0,3.8388,1.87,7.0859,5.5772,7.0859C126.2988,84.6211,128.3657,81.7021,128.3657,77.5352Z" transform="translate(-22.2881 -27.7002)" style="fill:#fff"/><path d="M134.5293,68.9072h2.2637V71.63c1.7387-1.7061,3.74-3.0508,6.3315-3.0508,2.92,0,4.2319,1.2793,4.7568,3.1172,1.8047-1.7061,3.97-3.1172,6.5289-3.1172,3.5429,0,4.9863,2.001,4.9863,5.1182v12.499h-2.2637V74.123c0-2.4267-.82-3.6084-3.2475-3.6084-2.1,0-3.8384,1.1485-5.774,3.0186V86.1963h-2.2636V74.123c0-2.4267-.82-3.6084-3.2808-3.6084-2.0669,0-3.8384,1.1485-5.7739,3.0186V86.1963h-2.2637Z" transform="translate(-22.2881 -27.7002)" style="fill:#fff"/><path d="M163.248,77.5352c0-6.1348,3.9371-8.9561,7.5787-8.9561,4.0351,0,7.0532,3.084,7.0532,8.9893v.4267H165.5117c.0332,4.2647,2.46,6.6592,5.4458,6.6592,2.5918,0,4.0684-1.1152,5.38-3.1494l1.4106,1.1152a7.6326,7.6326,0,0,1-6.9218,3.9375C166.7915,86.5576,163.248,83.44,163.248,77.5352ZM175.6816,76.19c-.23-3.28-1.8042-5.708-4.8877-5.708-2.4936,0-4.8227,1.8037-5.249,5.708Z" transform="translate(-22.2881 -27.7002)" style="fill:#fff"/><path d="M180.6348,83.44l1.4433-1.3125a6.7538,6.7538,0,0,0,5.38,2.4932c2.9526,0,4.4946-1.082,4.4946-3.0176,0-1.9033-1.3779-2.6572-4.7568-3.4443-3.97-.9844-6.0039-2.0342-6.0039-5.0528,0-2.46,2.1323-4.5273,5.8725-4.5273a8.4981,8.4981,0,0,1,6.397,2.4932l-1.2793,1.51a6.8936,6.8936,0,0,0-5.0522-2.1328c-2.69,0-3.74,1.2471-3.74,2.5586,0,1.6738,1.1812,2.3623,4.1992,3.084,4.3306,1.05,6.5611,2.1,6.5611,5.4785,0,3.1494-2.8213,4.9541-6.7251,4.9541A8.29,8.29,0,0,1,180.6348,83.44Z" transform="translate(-22.2881 -27.7002)" style="fill:#fff"/><rect x="192.0869" width="0.9004" height="59.4199" style="fill:#fff"/><polygon points="367.447 9.009 363.355 18.916 364.316 18.916 372.093 9.009 367.447 9.009" style="fill:#fff"/><path d="M245.0078,60.72a14.75,14.75,0,0,1-6.6348-1.5263l-1.7,1.5263h-.7862l-.5244-9.6885.915-.0869c2.751,6.2852,5.9805,8.292,8.9922,8.292a4.6063,4.6063,0,0,0,4.9766-4.8008c0-2.6191-1.0049-3.8847-5.1074-5.5869-1.3955-.5674-3.0117-1.1338-4.3643-1.789-3.0556-1.5284-4.6709-3.9287-4.6709-7.1143,0-5.1953,4.4961-8.3379,8.9043-8.3379a9.5355,9.5355,0,0,1,5.1074,1.4405l1.7022-1.4834h.7412l.7432,8.5546-.8741.1309c-2.3994-4.8008-4.9746-7.1582-7.8115-7.1582a3.9418,3.9418,0,0,0-4.1484,4.2334c0,2.0518.876,3.624,3.9717,4.9766,1.5283.6982,3.32,1.31,4.9345,2.0947,3.5332,1.7031,5.1934,3.9277,5.1934,7.1582,0,5.76-4.8447,9.165-9.56,9.165" transform="translate(-22.2881 -27.7002)" style="fill:#fff"/><path d="M268.0986,40.9043c-3.0556,0-4.9316,3.4043-4.9316,9.3848,0,5.8925,2.0078,9.2509,5.1064,9.2509,3.1866,0,4.9327-3.4013,4.9327-9.3818,0-5.8916-1.877-9.2539-5.1075-9.2539m-.1748,19.8613c-6.6338,0-9.9062-4.7578-9.9062-10.5644,0-5.3692,3.751-10.5186,10.4726-10.5186,6.6348,0,9.8223,4.7139,9.8223,10.4756,0,5.4121-3.667,10.6074-10.3887,10.6074" transform="translate(-22.2881 -27.7002)" style="fill:#fff"/><path d="M287.7832,60.5889c-3.4473,0-4.5381-1.7012-4.5381-4.8438V42.6934h-3.2295V42.084l4.0157-3.1875,3.1855-4.1465h.6543v5.6738h6.6357v2.27h-6.6357V54c0,1.7451.2617,2.792,1.1348,3.4033a5.4029,5.4029,0,0,0,3.1875.7c.6982,0,1.5722-.0449,2.4013-.09l.043.6123a14.5053,14.5053,0,0,1-6.8545,1.9629" transform="translate(-22.2881 -27.7002)" style="fill:#fff"/><path d="M308.168,43a9.5358,9.5358,0,0,0-4.5391,1.0918V58.5391l2.4434.916v.61H296.208v-.61l2.75-.916V32.1758l-3.0117-1.9649v-.4365l7.5088-2.0517.1738.1318V43.1309l.1758.0869c2.5742-2.4444,4.9307-3.5352,7.2881-3.5352,3.9277,0,5.5879,2.9688,5.5879,6.0674V58.5391l2.7509.916v.61h-9.8671v-.61l2.4472-.916v-11c0-2.837-1.1367-4.5391-3.8437-4.5391" transform="translate(-22.2881 -27.7002)" style="fill:#fff"/><path d="M334.5781,47.2334c-.1738-4.1025-1.3535-6.3291-3.9287-6.3291-2.5322,0-4.4951,2.6621-4.7139,6.7227l8.6426-.3936Zm-8.6845,1.4844c0,5.5439,1.5693,9.166,6.5029,9.166a17.8846,17.8846,0,0,0,6.5908-1.3975l.2607.5244c-2.6611,2.3135-5.6289,3.7549-8.4238,3.7549-5.9785,0-9.91-4.1035-9.91-10.1709,0-6.2412,4.7168-10.9121,10.04-10.9121,5.7647,0,8.5557,3.8838,8.5117,9.0352Z" transform="translate(-22.2881 -27.7002)" style="fill:#fff"/><path d="M351.8184,42.7383a8.6724,8.6724,0,0,0-3.4463.6982v13.835a6.5671,6.5671,0,0,0,4.7568,2.0078c2.5752,0,4.7139-2.3125,4.7139-8.4668,0-5.4121-2.3125-8.0742-6.0244-8.0742m-.74,18.0273a29.7028,29.7028,0,0,1-7.3769-1.1357V32.1758l-3.0547-1.9649v-.4365l7.55-2.0508.1758.1309V42.4766l.1767.0879a8.9039,8.9039,0,0,1,6.3272-2.8819c4.1465,0,7.8994,3.7979,7.8994,10.0381,0,6.2422-4.7129,11.0449-11.6973,11.0449" transform="translate(-22.2881 -27.7002)" style="fill:#fff"/><path d="M374.7354,61.417c-2.1827,5.37-4.2315,7.7266-6.94,7.7266-2.3135,0-3.4033-1.3536-3.4033-2.75a2.6007,2.6007,0,0,1,2.6172-2.4864c1.4853,0,2.3574.7832,3.4062,2.0928a16.9768,16.9768,0,0,0,2.4-3.7119l.7412-1.6543L365.833,41.9961l-2.6641-1.0469v-.5683h10.6495v.5683l-2.793,1.0469,4.7139,12.7891h.2177l4.2784-12.4834-2.53-1.3526v-.5683h7.5058v.5683l-2.8369,1.44L374.7354,61.417Z" transform="translate(-22.2881 -27.7002)" style="fill:#fff"/><path d="M399.62,60.7656a17.2277,17.2277,0,0,1-6.4609-1.1806l-.043-5.7608.874-.0859c2.3555,4.1455,4.1465,5.7168,6.459,5.7168a3.0933,3.0933,0,0,0,3.3174-3.3164c0-2.27-2.3135-3.1426-4.8008-4.1475-2.75-1.1787-5.6748-2.4883-5.6748-6.11,0-3.4483,3.0547-6.1983,7.5078-6.1983a18.69,18.69,0,0,1,5.28.7861l.1309,5.1934-.8282.2188c-2.1386-3.5352-3.5351-4.8887-5.5449-4.8887a2.7536,2.7536,0,0,0-2.9668,2.793c0,2.2695,2.3565,3.1875,4.8428,4.1914,2.7529,1.1347,5.72,2.4433,5.72,6.1543,0,4.0586-3.5791,6.6347-7.8125,6.6347" transform="translate(-22.2881 -27.7002)" style="fill:#fff"/><path d="M235.9189,87.1113h.9756V76.9531h-.9756V87.1113Zm4.4874,0h.9218V78.4766h.0274l5.7783,8.6347h.8652V76.9531h-.9209v8.3731h-.0273l-5.6016-8.3731h-1.0429V87.1113Zm13.0683,0h.9736V77.8574h3.2813v-.9043h-7.5361v.9043h3.2812v9.2539Zm6.45,0h6.3545v-.8935h-5.38V82.1826h3.8027v-.8779h-3.8027V77.8574h5.0928v-.9043h-6.0674V87.1113Zm8.9932,0h.959V82.5518h2.5244l2.4853,4.56h1.0987l-2.5665-4.6689a2.6032,2.6032,0,0,0,2.4278-2.7442c0-1.7841-1.2637-2.7451-3.5274-2.7451H268.918V87.1113Zm.959-5.4238V77.8437h2.36c1.7022,0,2.6357.4961,2.6357,1.8965,0,1.4688-.9472,1.9473-2.621,1.9473Zm9.3466,5.4238h.9209V78.4766h.0274l5.7783,8.6347h.8643V76.9531h-.9209v8.3731h-.0274l-5.5976-8.3731h-1.045V87.1113Zm10.2129,0h.9483l1.083-3.1308h4.1181l1.083,3.1308h1.0176l-3.5976-10.1992h-1.0567l-3.5957,10.1992Zm2.333-3.9951,1.7442-5.0508h.0263l1.7432,5.0508Zm9.8282,3.9951h.9746V77.8574h3.2812v-.9043h-7.5381v.9043h3.2823v9.2539Zm6.5878,0h.9737V76.9531h-.9737V87.1113Zm8.1807.1905c2.4854,0,4.2822-2.085,4.2822-5.27s-1.7968-5.27-4.2822-5.27-4.2822,2.0869-4.2822,5.27,1.7978,5.27,4.2822,5.27Zm0-.878c-1.9219,0-3.3086-1.6328-3.3086-4.3916s1.3867-4.3808,3.3086-4.3808,3.3067,1.6211,3.3067,4.3808-1.3848,4.3916-3.3067,4.3916Zm7.3994.6875h.919V78.4766h.0293l5.7754,8.6347h.8652V76.9531h-.92v8.3731h-.0274l-5.5986-8.3731h-1.043V87.1113Zm10.2266,0h.9453l1.085-3.1308h4.1162l1.084,3.1308h1.0166l-3.5957-10.1992h-1.0567l-3.5947,10.1992Zm2.331-3.9951,1.7442-5.0508h.0293l1.7412,5.0508Zm8.62,3.9951h5.9433v-.8935H345.918V76.9531h-.9746V87.1113Zm11.7627,0h.96V82.5518h2.5264l2.4844,4.56h1.0957l-2.5645-4.6689a2.6033,2.6033,0,0,0,2.4287-2.7442c0-1.7841-1.2607-2.7451-3.5263-2.7451h-3.4043V87.1113Zm.96-5.4238V77.8437h2.3613c1.7032,0,2.6358.4961,2.6358,1.8965,0,1.4688-.9483,1.9473-2.6211,1.9473Zm9.0733,5.4238h6.3564v-.8935h-5.3818V82.1826h3.8007v-.8779h-3.8007V77.8574h5.0927v-.9043h-6.0673V87.1113Zm7.6045,0h.9462l1.086-3.1308h4.1172l1.0839,3.1308h1.0157l-3.5957-10.1992H377.94l-3.5957,10.1992Zm2.3339-3.9951,1.7432-5.0508h.0273l1.7422,5.0508Zm8.3731,3.9951h5.9414v-.8935h-4.9678V76.9531h-.9736V87.1113Zm8.66,0h.9737V77.8574h3.2812v-.9043h-7.5351v.9043h3.28v9.2539Zm8.7705,0h.9747V82.6357l3.4179-5.6826h-1.0449l-2.84,4.8467-2.8555-4.8467h-1.0557l3.4033,5.6826v4.4756Z" transform="translate(-22.2881 -27.7002)" style="fill:#fff"/></svg>