<svg id="Layer_3" data-name="Layer 3" xmlns="http://www.w3.org/2000/svg" viewBox="0 0 172.2827 153.1094"><title>Atlanta_Fine_Homes_SIR_Vert_BLU</title><rect y="76.459" width="172.2691" height="0.9004" style="fill:#002349"/><polygon points="154.585 102.517 150.495 112.424 151.455 112.424 159.23 102.517 154.585 102.517" style="fill:#002349"/><path d="M42.2861,149.3487a14.7478,14.7478,0,0,1-6.6347-1.5264l-1.7,1.5264H33.165l-.5244-9.6885.9151-.0869c2.7509,6.2851,5.98,8.292,8.9921,8.292a4.6063,4.6063,0,0,0,4.9766-4.8008c0-2.6192-1.0049-3.8848-5.1074-5.5869-1.3955-.5674-3.0117-1.1338-4.3643-1.7891-3.0556-1.5283-4.6709-3.9287-4.6709-7.1143,0-5.1953,4.4961-8.3378,8.9043-8.3378a9.5363,9.5363,0,0,1,5.1074,1.44l1.7022-1.4834h.7412l.7432,8.5547-.8741.1308c-2.3994-4.8007-4.9746-7.1582-7.8115-7.1582a3.9418,3.9418,0,0,0-4.1484,4.2334c0,2.0518.876,3.6241,3.9717,4.9766,1.5283.6982,3.32,1.31,4.9345,2.0947,3.5332,1.7031,5.1934,3.9278,5.1934,7.1582,0,5.76-4.8447,9.1651-9.56,9.1651" transform="translate(-32.4282 -22.8213)" style="fill:#002349"/><path d="M65.3769,129.5332c-3.0556,0-4.9316,3.4043-4.9316,9.3848,0,5.8926,2.0078,9.251,5.1064,9.251,3.1866,0,4.9327-3.4014,4.9327-9.3819,0-5.8916-1.877-9.2539-5.1075-9.2539m-.1748,19.8614c-6.6338,0-9.9062-4.7579-9.9062-10.5645,0-5.3691,3.751-10.5185,10.4726-10.5185,6.6348,0,9.8223,4.7138,9.8223,10.4755,0,5.4121-3.667,10.6075-10.3887,10.6075" transform="translate(-32.4282 -22.8213)" style="fill:#002349"/><path d="M85.0615,149.2178c-3.4473,0-4.5381-1.7012-4.5381-4.8437V131.3223h-3.23v-.6094l4.0157-3.1875,3.1855-4.1465h.6543v5.6739h6.6357v2.27H85.1494v11.3066c0,1.7452.2617,2.792,1.1348,3.4034a5.4029,5.4029,0,0,0,3.1875.7c.6982,0,1.5722-.0449,2.4013-.09l.043.6123a14.5053,14.5053,0,0,1-6.8545,1.9629" transform="translate(-32.4282 -22.8213)" style="fill:#002349"/><path d="M105.4463,131.6289a9.537,9.537,0,0,0-4.5391,1.0918V147.168l2.4434.916v.61H93.4863v-.61l2.75-.916V120.8047L93.2246,118.84v-.4366l7.5088-2.0517.1738.1318V131.76l.1758.0869c2.5742-2.4443,4.9307-3.5351,7.2881-3.5351,3.9277,0,5.5879,2.9687,5.5879,6.0673V147.168l2.7509.916v.61h-9.8671v-.61l2.4472-.916v-11c0-2.8369-1.1367-4.5391-3.8437-4.5391" transform="translate(-32.4282 -22.8213)" style="fill:#002349"/><path d="M131.8555,135.8623c-.1739-4.1025-1.3536-6.3291-3.9278-6.3291-2.5332,0-4.4961,2.6621-4.7138,6.7227l8.6416-.3936Zm-8.6827,1.4844c0,5.544,1.5674,9.166,6.501,9.166a17.8907,17.8907,0,0,0,6.5918-1.3974l.2608.5244c-2.6612,2.3135-5.629,3.7549-8.4248,3.7549-5.9786,0-9.9092-4.1036-9.9092-10.1709,0-6.2413,4.7158-10.9121,10.04-10.9121,5.7647,0,8.5547,3.8837,8.5117,9.0351Z" transform="translate(-32.4282 -22.8213)" style="fill:#002349"/><path d="M149.0957,131.3672a8.6615,8.6615,0,0,0-3.4443.6983V145.9a6.5607,6.5607,0,0,0,4.7548,2.0078c2.5762,0,4.7159-2.3125,4.7159-8.4668,0-5.4121-2.3125-8.0742-6.0264-8.0742m-.74,18.0274a29.7181,29.7181,0,0,1-7.377-1.1358V120.8047l-3.0547-1.9648v-.4366l7.5508-2.0507.1768.1308v14.6221l.1748.0879a8.9052,8.9052,0,0,1,6.3291-2.8818c4.1464,0,7.8974,3.7978,7.8974,10.038,0,6.2422-4.7129,11.045-11.6972,11.045" transform="translate(-32.4282 -22.8213)" style="fill:#002349"/><path d="M172.0137,150.0459c-2.1827,5.37-4.2325,7.7266-6.94,7.7266-2.3144,0-3.4043-1.3535-3.4043-2.75a2.6013,2.6013,0,0,1,2.6172-2.4863c1.4863,0,2.3574.7832,3.4062,2.0927a16.9366,16.9366,0,0,0,2.4-3.7119l.7422-1.6543-7.7246-18.6377-2.664-1.0468V129.01h10.6484v.5684l-2.793,1.0468,4.7158,12.7891h.2168l4.2784-12.4834-2.5313-1.3525V129.01h7.5068v.5684l-2.8369,1.4394-7.6386,19.0283Z" transform="translate(-32.4282 -22.8213)" style="fill:#002349"/><path d="M196.8984,149.3946a17.2168,17.2168,0,0,1-6.46-1.1807l-.044-5.7607.874-.086c2.3545,4.1455,4.1456,5.7168,6.4581,5.7168a3.093,3.093,0,0,0,3.3183-3.3164c0-2.27-2.3144-3.1426-4.8008-4.1475-2.75-1.1787-5.6758-2.4882-5.6758-6.11,0-3.4482,3.0547-6.1982,7.5079-6.1982a18.692,18.692,0,0,1,5.2812.7861l.1318,5.1933-.8291.2188c-2.1377-3.5352-3.5351-4.8887-5.5449-4.8887a2.7531,2.7531,0,0,0-2.9668,2.793c0,2.27,2.3555,3.1875,4.8418,4.1914,2.7539,1.1348,5.7207,2.4434,5.7207,6.1543,0,4.0586-3.58,6.6348-7.8125,6.6348" transform="translate(-32.4282 -22.8213)" style="fill:#002349"/><path d="M33.1973,175.74h.9755V165.5821h-.9755V175.74Zm4.4873,0h.9218v-8.6348h.0274l5.7783,8.6348h.8652V165.5821h-.9209v8.373h-.0273l-5.6016-8.373H37.6846V175.74Zm13.0683,0h.9737v-9.2539h3.2812v-.9043H47.4717v.9043h3.2812V175.74Zm6.45,0h6.3545v-.8936h-5.38v-4.0351h3.8028v-.878H58.1777v-3.4472h5.0928v-.9043H57.2031V175.74Zm8.9932,0h.959v-4.56H69.68l2.4853,4.56h1.0987l-2.5664-4.669a2.6031,2.6031,0,0,0,2.4277-2.7441c0-1.7842-1.2637-2.7451-3.5274-2.7451H66.1963V175.74Zm.959-5.4239v-3.8437h2.36c1.7022,0,2.6358.4961,2.6358,1.8965,0,1.4687-.9473,1.9472-2.6211,1.9472Zm9.3466,5.4239h.9209v-8.6348H77.45l5.7783,8.6348h.8643V165.5821h-.9209v8.373h-.0274l-5.5976-8.373h-1.045V175.74Zm10.2129,0h.9483l1.083-3.1309h4.1181l1.0831,3.1309h1.0175L91.3672,165.541H90.3105L86.7148,175.74Zm2.333-3.9952,1.7442-5.0507h.0263l1.7432,5.0507ZM98.876,175.74h.9746v-9.2539h3.2812v-.9043H95.5937v.9043H98.876V175.74Zm6.5879,0h.9736V165.5821h-.9736V175.74Zm8.1806.19c2.4854,0,4.2822-2.085,4.2822-5.2695s-1.7968-5.27-4.2822-5.27-4.2822,2.0869-4.2822,5.27,1.7978,5.2695,4.2822,5.2695Zm0-.8779c-1.9219,0-3.3086-1.6329-3.3086-4.3916s1.3867-4.3809,3.3086-4.3809,3.3067,1.6211,3.3067,4.3809-1.3848,4.3916-3.3067,4.3916Zm7.3985.6875h.9209v-8.6348h.0293l5.7753,8.6348h.8643V165.5821h-.9189v8.373h-.0284l-5.6-8.373H121.043V175.74Zm10.2265,0h.9453l1.0869-3.1309h4.1143l1.085,3.1309h1.0175l-3.5957-10.1993h-1.0576L131.27,175.74Zm2.3321-3.9952,1.7441-5.0507h.03l1.7392,5.0507Zm8.6191,3.9952h5.9434v-.8936h-4.9678v-9.2646h-.9756V175.74Zm11.7646,0h.958v-4.56h2.5274l2.4853,4.56h1.0957l-2.5654-4.669a2.6018,2.6018,0,0,0,2.4278-2.7441c0-1.7842-1.2588-2.7451-3.5254-2.7451h-3.4034V175.74Zm.958-5.4239v-3.8437h2.3624c1.7021,0,2.6357.4961,2.6357,1.8965,0,1.4687-.9482,1.9472-2.62,1.9472Zm9.0752,5.4239h6.3545v-.8936h-5.38v-4.0351h3.8v-.878h-3.8v-3.4472h5.0917v-.9043h-6.0664V175.74Zm7.6036,0h.9462l1.087-3.1309h4.1171l1.0831,3.1309h1.0166l-3.5957-10.1993h-1.0586L171.6221,175.74Zm2.3339-3.9952,1.7432-5.0507h.0274l1.7421,5.0507Zm8.3721,3.9952H188.27v-.8936h-4.9668v-9.2646h-.9746V175.74Zm8.6611,0h.9747v-9.2539h3.28v-.9043H187.71v.9043h3.2793V175.74Zm8.7706,0h.9755v-4.4756l3.417-5.6826h-1.0449l-2.8389,4.8466-2.8564-4.8466h-1.0566l3.4043,5.6826V175.74Z" transform="translate(-32.4282 -22.8213)" style="fill:#002349"/><path d="M41.2046,22.8213h2.5259l8.5952,24.375H49.8984l-2.5918-7.48H37.4648l-2.5918,7.48H32.6094Zm5.38,14.8281L42.4184,25.5767h-.0659l-4.166,12.0727Z" transform="translate(-32.4282 -22.8213)" style="fill:#002349"/><path d="M55.9824,43.1612V31.8428H52.9639V29.9073h3.0185v-6.2h2.2637v6.2H62.74v1.9355H58.2461V42.7017c0,1.8374.5908,2.8213,2.7226,2.8213a6.03,6.03,0,0,0,1.8047-.23V47.229a13.7023,13.7023,0,0,1-2.2314.1968C57.2285,47.4258,55.9824,46.1465,55.9824,43.1612Z" transform="translate(-32.4282 -22.8213)" style="fill:#002349"/><path d="M66.2383,22.92h2.2636V47.1963H66.2383Z" transform="translate(-32.4282 -22.8213)" style="fill:#002349"/><path d="M72.3457,43.1612c0-3.4121,2.9189-5.9053,11.7109-7.25v-.8863c0-2.3945-1.2461-3.5429-3.51-3.5429a9.4036,9.4036,0,0,0-6.4629,2.7231L72.87,32.7945a11.025,11.025,0,0,1,7.874-3.2154c3.8711,0,5.544,2.0669,5.544,5.5117v7.8409a11.9216,11.9216,0,0,0,.4922,4.2646H84.4512a7.7056,7.7056,0,0,1-.3946-2.46,9.8829,9.8829,0,0,1-6.8232,2.7558C74.1494,47.4917,72.3457,45.8511,72.3457,43.1612Zm11.7109-.2627v-5.38c-7.414,1.2466-9.48,3.0835-9.48,5.3472,0,1.8046,1.2138,2.7558,3.1494,2.7558A9.01,9.01,0,0,0,84.0566,42.8985Z" transform="translate(-32.4282 -22.8213)" style="fill:#002349"/><path d="M90.9687,29.9073h2.2637V32.63a9.4778,9.4778,0,0,1,6.5947-3.0513c3.4121,0,5.15,1.9029,5.15,5.1182v12.499h-2.2636V35.1236c0-2.4278-1.0831-3.6089-3.4444-3.6089-2.2314,0-4.1015,1.1484-6.0371,3.0185V47.1963H90.9687Z" transform="translate(-32.4282 -22.8213)" style="fill:#002349"/><path d="M110.7646,43.1612V31.8428h-3.0185V29.9073h3.0185v-6.2h2.2637v6.2h4.4941v1.9355h-4.4941V42.7017c0,1.8374.5908,2.8213,2.7227,2.8213a6.03,6.03,0,0,0,1.8047-.23V47.229a13.7036,13.7036,0,0,1-2.2315.1968C112.0107,47.4258,110.7646,46.1465,110.7646,43.1612Z" transform="translate(-32.4282 -22.8213)" style="fill:#002349"/><path d="M120.2656,43.1612c0-3.4121,2.92-5.9053,11.7119-7.25v-.8863c0-2.3945-1.2461-3.5429-3.51-3.5429a9.4036,9.4036,0,0,0-6.4629,2.7231l-1.2139-1.4106a11.0245,11.0245,0,0,1,7.8731-3.2154c3.872,0,5.5449,2.0669,5.5449,5.5117v7.8409a11.9216,11.9216,0,0,0,.4922,4.2646h-2.3291a7.7056,7.7056,0,0,1-.3946-2.46,9.8829,9.8829,0,0,1-6.8232,2.7558C122.07,47.4917,120.2656,45.8511,120.2656,43.1612Zm11.7119-.2627v-5.38c-7.414,1.2466-9.48,3.0835-9.48,5.3472,0,1.8046,1.2138,2.7558,3.1494,2.7558A9.01,9.01,0,0,0,131.9775,42.8985Z" transform="translate(-32.4282 -22.8213)" style="fill:#002349"/><path d="M147.1621,22.92h14.2051V25.085h-11.875V33.45h8.792v2.1h-8.792V47.1963h-2.33Z" transform="translate(-32.4282 -22.8213)" style="fill:#002349"/><path d="M164.87,23.4771h2.3945v2.4277H164.87Zm.0654,6.43h2.2637v17.289h-2.2637Z" transform="translate(-32.4282 -22.8213)" style="fill:#002349"/><path d="M172.0625,29.9073h2.2627V32.63a9.4778,9.4778,0,0,1,6.5947-3.0513c3.4121,0,5.15,1.9029,5.15,5.1182v12.499h-2.2637V35.1236c0-2.4278-1.083-3.6089-3.4443-3.6089-2.2315,0-4.1006,1.1484-6.0371,3.0185V47.1963h-2.2627Z" transform="translate(-32.4282 -22.8213)" style="fill:#002349"/><path d="M189.876,38.5352c0-6.1348,3.9365-8.9561,7.5781-8.9561,4.0351,0,7.0537,3.084,7.0537,8.9893v.4263H192.14c.0323,4.2651,2.46,6.66,5.4453,6.66,2.5918,0,4.0684-1.1152,5.3809-3.1494l1.41,1.1157a7.6329,7.6329,0,0,1-6.9219,3.9366C193.4189,47.5572,189.876,44.4405,189.876,38.5352ZM202.31,37.1905c-.23-3.2808-1.8047-5.7085-4.8887-5.7085-2.4932,0-4.8223,1.8042-5.249,5.7085Z" transform="translate(-32.4282 -22.8213)" style="fill:#002349"/><path d="M32.9048,54.92h2.3291v10.4H48.3891V54.92h2.33V79.1963h-2.33V67.4512H35.2339V79.1963H32.9048Z" transform="translate(-32.4282 -22.8213)" style="fill:#002349"/><path d="M55.1094,70.5684c0-5.7744,3.5752-8.9893,7.8408-8.9893,4.2314,0,7.8076,3.2149,7.8076,8.9893,0,5.7412-3.5762,8.9892-7.8076,8.9892S55.1094,76.31,55.1094,70.5684Zm13.3847-.0332c0-3.7725-1.9023-7.0205-5.5439-7.0205-3.5108,0-5.5772,2.9531-5.5772,7.0205,0,3.8389,1.8692,7.0859,5.5772,7.0859C66.4277,77.6211,68.4941,74.7022,68.4941,70.5352Z" transform="translate(-32.4282 -22.8213)" style="fill:#002349"/><path d="M74.6582,61.9073h2.2627V64.63c1.7392-1.706,3.74-3.0508,6.332-3.0508,2.92,0,4.2324,1.2793,4.7569,3.1172,1.8046-1.706,3.97-3.1172,6.5283-3.1172,3.5429,0,4.9873,2.001,4.9873,5.1182v12.499H97.2617V67.1231c0-2.4268-.82-3.6084-3.248-3.6084-2.1,0-3.8389,1.1484-5.7745,3.0185V79.1963H85.9756V67.1231c0-2.4268-.8194-3.6084-3.28-3.6084-2.0664,0-3.8379,1.1484-5.7744,3.0185V79.1963H74.6582Z" transform="translate(-32.4282 -22.8213)" style="fill:#002349"/><path d="M103.3769,70.5352c0-6.1348,3.9366-8.9561,7.5782-8.9561,4.0351,0,7.0527,3.084,7.0527,8.9893v.4267H105.6406c.0322,4.2647,2.46,6.6592,5.4453,6.6592,2.5918,0,4.0684-1.1152,5.3809-3.1494l1.41,1.1152a7.6325,7.6325,0,0,1-6.9218,3.9375C106.92,79.5576,103.3769,76.4405,103.3769,70.5352Zm12.4336-1.3447c-.23-3.28-1.8047-5.7081-4.8886-5.7081-2.4932,0-4.8223,1.8038-5.2491,5.7081Z" transform="translate(-32.4282 -22.8213)" style="fill:#002349"/><path d="M120.7637,76.4405l1.4433-1.3125a6.7523,6.7523,0,0,0,5.38,2.4931c2.9522,0,4.4941-1.082,4.4941-3.0176,0-1.9033-1.3779-2.6572-4.7568-3.4443-3.97-.9844-6.0029-2.0342-6.0029-5.0527,0-2.46,2.1318-4.5274,5.872-4.5274a8.5009,8.5009,0,0,1,6.3975,2.4932l-1.2793,1.51a6.8957,6.8957,0,0,0-5.0527-2.1329c-2.69,0-3.74,1.2471-3.74,2.5586,0,1.6739,1.1817,2.3623,4.1993,3.084,4.331,1.05,6.5615,2.1,6.5615,5.4785,0,3.15-2.8213,4.9541-6.7256,4.9541A8.2884,8.2884,0,0,1,120.7637,76.4405Z" transform="translate(-32.4282 -22.8213)" style="fill:#002349"/></svg>